/* XPM */
static char * hexal_E_10x10_xpm[] = {
"16 16 2 1",
" 	c None",
".	c #000000",
"                ",
"    ..    ..    ",
"   ....  ....   ",
"   ....  ....   ",
"   ....  ....   ",
"   ....  ....   ",
"   ..........   ",
"   ..........   ",
"   ..........   ",
"    .........   ",
"         ....   ",
"         ....   ",
"         ....   ",
"         ....   ",
"          ..    ",
"                "};
