/* XPM */
static char * hexal_0_10x10_xpm[] = {
"16 16 2 1",
" 	c None",
".	c #000000",
"                ",
"                ",
"                ",
"                ",
"                ",
"                ",
"    ........    ",
"   ..........   ",
"   ..........   ",
"    ........    ",
"                ",
"                ",
"                ",
"                ",
"                ",
"                "};
